<svg width="94" height="102" viewBox="0 0 94 102" fill="none" xmlns="http://www.w3.org/2000/svg">
<g clip-path="url(#clip0_109_1866)">
<path d="M46.5614 88.6775C47.0632 88.7507 47.2283 88.8617 47.427 88.8512C60.3685 85.2334 70.5043 77.8332 76.8775 65.8632C78.4943 62.8444 79.2958 59.4698 79.353 55.9549C79.5408 48.4225 75.0016 41.9383 67.9037 39.5202C64.2115 38.239 60.4561 37.6595 56.6114 38.8206C55.8824 40.5153 55.2139 42.2268 54.3971 43.7665C53.0525 46.272 51.054 48.0738 48.1989 48.7236C46.0947 49.254 44.2757 48.7516 43.574 47.5117C42.653 45.8843 43.1228 44.1833 44.2969 43.0038C45.9252 41.3613 47.7625 39.9073 49.6268 38.5915C50.8383 37.7492 52.3027 37.1729 53.6457 36.5631C54.5109 29.4139 48.8284 24.7061 40.2788 25.4178C39.7678 26.3228 39.2401 27.2885 38.6685 28.1768C36.4659 31.426 33.4675 33.5401 29.4771 33.811C27.9483 33.9118 26.3822 33.6754 25.5218 32.0648C24.8808 30.8416 25.3506 29.1407 26.7905 27.7077C29.1052 25.4701 31.99 24.24 34.9896 23.3032C36.0501 23.0076 37.1106 22.7121 38.1543 22.4773C39.8778 11.5114 32.4388 1.34948 21.9268 3.02296C22.2056 2.24998 22.3295 1.565 22.6727 1.2675C23.0933 0.925992 23.8274 0.867206 24.4066 0.896425C29.8289 1.34787 34.4512 3.27829 37.3521 8.13319C39.5513 11.7482 40.6127 15.7027 40.8728 19.959C40.9037 20.556 40.9346 21.1529 41.0262 21.7667C41.0094 21.8274 41.1139 21.9217 41.3061 22.1709C41.8686 22.2608 42.5355 22.4451 43.236 22.5078C51.7132 23.476 55.3536 26.8352 57.0156 35.467C57.8103 35.425 58.7263 35.4164 59.5984 35.3304C64.7034 35.0404 69.4057 36.2083 73.6989 39.094C80.6947 43.7721 83.8378 51.7669 82.0682 60.3009C81.113 64.9407 79.1168 69.0969 76.3052 72.8971C69.4679 82.0584 60.6881 88.3293 49.4058 90.9015C48.8369 91.0713 48.224 91.1636 47.6551 91.3333C47.5777 91.3773 47.4835 91.4821 47.2009 91.7964C49.1282 92.8517 51.1188 93.2053 53.0927 93.6197C54.9891 94.0781 56.9797 94.4317 59.0748 94.8796C58.4566 96.4088 57.44 96.7819 56.3086 96.8617C54.9952 96.8912 53.6483 97.0423 52.4189 96.7681C49.1111 95.9853 45.7595 95.125 42.475 94.0218C39.9181 93.1194 39.5764 91.5213 41.3157 89.7132C45.0432 85.9045 48.8314 82.1124 52.6195 78.3204C53.2453 77.7086 53.9588 77.2519 54.8606 76.5856C55.6436 78.2402 54.89 79.0782 54.2139 79.8722C51.6102 82.6838 49.1884 85.5455 46.5614 88.6775ZM27.8442 30.7447C32.1789 31.3535 35.5243 29.4006 36.7465 25.6845C33.454 26.7366 30.3331 27.64 27.8442 30.7447ZM45.7377 45.8209C49.5499 45.9584 51.9188 43.9974 52.5784 40.1913C49.7375 41.4989 47.2332 42.7687 45.7377 45.8209Z" fill="white"/>
</g>
<defs>
<clipPath id="clip0_109_1866">
<rect width="73.2857" height="85.5" fill="white" transform="translate(22.7617) rotate(15.4394)"/>
</clipPath>
</defs>
</svg>
